<?xml version="1.0" encoding="UTF-8" standalone="no"?>
<!DOCTYPE svg PUBLIC "-//W3C//DTD SVG 1.1//EN"
 "http://www.w3.org/Graphics/SVG/1.1/DTD/svg11.dtd">
<!-- Generated by graphviz version 14.1.2 (0)
 -->
<!-- Title: mailbox Pages: 1 -->
<svg width="636pt" height="234pt"
 viewBox="0.00 0.00 636.00 234.00" xmlns="http://www.w3.org/2000/svg" xmlns:xlink="http://www.w3.org/1999/xlink">
<g id="graph0" class="graph" transform="scale(1 1) rotate(0) translate(4 230)">
<title>mailbox</title>
<polygon fill="white" stroke="none" points="-4,4 -4,-230 632,-230 632,4 -4,4"/>
<!-- a1 -->
<g id="node1" class="node">
<title>a1</title>
<path fill="#ffffff" stroke="#555555" d="M616,-226C616,-226 458.25,-226 458.25,-226 452.25,-226 446.25,-220 446.25,-214 446.25,-214 446.25,-195.5 446.25,-195.5 446.25,-189.5 452.25,-183.5 458.25,-183.5 458.25,-183.5 616,-183.5 616,-183.5 622,-183.5 628,-189.5 628,-195.5 628,-195.5 628,-214 628,-214 628,-220 622,-226 616,-226"/>
<text xml:space="preserve" text-anchor="middle" x="537.12" y="-208.7" font-family="Helvetica,sans-Serif" font-size="14.00">Writes payload to SRAM</text>
<text xml:space="preserve" text-anchor="middle" x="537.12" y="-191.45" font-family="Helvetica,sans-Serif" font-size="14.00">Offset 0x0007_C000</text>
</g>
<!-- a2 -->
<g id="node2" class="node">
<title>a2</title>
<path fill="#ffffff" stroke="#555555" d="M546.5,-122C546.5,-122 361.75,-122 361.75,-122 355.75,-122 349.75,-116 349.75,-110 349.75,-110 349.75,-91.5 349.75,-91.5 349.75,-85.5 355.75,-79.5 361.75,-79.5 361.75,-79.5 546.5,-79.5 546.5,-79.5 552.5,-79.5 558.5,-85.5 558.5,-91.5 558.5,-91.5 558.5,-110 558.5,-110 558.5,-116 552.5,-122 546.5,-122"/>
<text xml:space="preserve" text-anchor="middle" x="454.12" y="-104.7" font-family="Helvetica,sans-Serif" font-size="14.00">Waits for acknowledgement</text>
<text xml:space="preserve" text-anchor="middle" x="454.12" y="-87.45" font-family="Helvetica,sans-Serif" font-size="14.00">on MSG_DATA[1]</text>
</g>
<!-- a1&#45;&gt;a2 -->
<!-- r2 -->
<g id="node5" class="node">
<title>r2</title>
<path fill="#ffffff" stroke="#555555" d="M197.88,-122C197.88,-122 48.38,-122 48.38,-122 42.38,-122 36.38,-116 36.38,-110 36.38,-110 36.38,-91.5 36.38,-91.5 36.38,-85.5 42.38,-79.5 48.38,-79.5 48.38,-79.5 197.88,-79.5 197.88,-79.5 203.88,-79.5 209.88,-85.5 209.88,-91.5 209.88,-91.5 209.88,-110 209.88,-110 209.88,-116 203.88,-122 197.88,-122"/>
<text xml:space="preserve" text-anchor="middle" x="123.12" y="-104.7" font-family="Helvetica,sans-Serif" font-size="14.00">Wakes, reads register,</text>
<text xml:space="preserve" text-anchor="middle" x="123.12" y="-87.45" font-family="Helvetica,sans-Serif" font-size="14.00">executes cmd in SRAM</text>
</g>
<!-- a1&#45;&gt;r2 -->
<g id="edge5" class="edge">
<title>a1&#45;&gt;r2</title>
<path fill="none" stroke="#cc0000" d="M446.14,-192.97C415.32,-187.24 381.28,-178.57 351.88,-165.5 334.37,-157.72 334.66,-147.7 317.12,-140 287.18,-126.85 252.66,-118.19 221.11,-112.5"/>
<polygon fill="#cc0000" stroke="#cc0000" points="222.03,-109.1 211.58,-110.86 220.84,-116 222.03,-109.1"/>
<text xml:space="preserve" text-anchor="middle" x="455" y="-156" font-family="Helvetica,sans-Serif" font-size="10.00" fill="#cc0000">Mailbox IRQ</text>
<text xml:space="preserve" text-anchor="middle" x="455" y="-143.25" font-family="Helvetica,sans-Serif" font-size="10.00" fill="#cc0000">(Doorbell: Writes pointer to MSG_DATA[0])</text>
</g>
<!-- a3 -->
<g id="node3" class="node">
<title>a3</title>
<path fill="#ffffff" stroke="#555555" d="M377.12,-226C377.12,-226 229.12,-226 229.12,-226 223.12,-226 217.12,-220 217.12,-214 217.12,-214 217.12,-195.5 217.12,-195.5 217.12,-189.5 223.12,-183.5 229.12,-183.5 229.12,-183.5 377.12,-183.5 377.12,-183.5 383.12,-183.5 389.12,-189.5 389.12,-195.5 389.12,-195.5 389.12,-214 389.12,-214 389.12,-220 383.12,-226 377.12,-226"/>
<text xml:space="preserve" text-anchor="middle" x="303.12" y="-208.7" font-family="Helvetica,sans-Serif" font-size="14.00">IRQ triggers on host,</text>
<text xml:space="preserve" text-anchor="middle" x="303.12" y="-191.45" font-family="Helvetica,sans-Serif" font-size="14.00">reads response packet</text>
</g>
<!-- a2&#45;&gt;a3 -->
<!-- r1 -->
<g id="node4" class="node">
<title>r1</title>
<path fill="#ffffff" stroke="#555555" d="M168.25,-226C168.25,-226 12,-226 12,-226 6,-226 0,-220 0,-214 0,-214 0,-195.5 0,-195.5 0,-189.5 6,-183.5 12,-183.5 12,-183.5 168.25,-183.5 168.25,-183.5 174.25,-183.5 180.25,-189.5 180.25,-195.5 180.25,-195.5 180.25,-214 180.25,-214 180.25,-220 174.25,-226 168.25,-226"/>
<text xml:space="preserve" text-anchor="middle" x="90.12" y="-208.7" font-family="Helvetica,sans-Serif" font-size="14.00">Waits in low&#45;power loop</text>
<text xml:space="preserve" text-anchor="middle" x="90.12" y="-191.45" font-family="Helvetica,sans-Serif" font-size="14.00">or handles SPI sensors</text>
</g>
<!-- r1&#45;&gt;r2 -->
<!-- r2&#45;&gt;a3 -->
<g id="edge6" class="edge">
<title>r2&#45;&gt;a3</title>
<path fill="none" stroke="#0000cc" d="M119.42,-122.28C118.15,-136.14 119.11,-153.94 129.38,-165.5 132.33,-168.83 167.79,-176.9 205.91,-184.78"/>
<polygon fill="#0000cc" stroke="#0000cc" points="204.73,-188.11 215.23,-186.69 206.14,-181.25 204.73,-188.11"/>
<text xml:space="preserve" text-anchor="middle" x="221.25" y="-156" font-family="Helvetica,sans-Serif" font-size="10.00" fill="#0000cc">Mailbox IRQ</text>
<text xml:space="preserve" text-anchor="middle" x="221.25" y="-143.25" font-family="Helvetica,sans-Serif" font-size="10.00" fill="#0000cc">(Echo: Writes status to MSG_DATA[1])</text>
</g>
<!-- r3 -->
<g id="node6" class="node">
<title>r3</title>
<path fill="#ffffff" stroke="#555555" d="M194.88,-42.5C194.88,-42.5 51.38,-42.5 51.38,-42.5 45.38,-42.5 39.38,-36.5 39.38,-30.5 39.38,-30.5 39.38,-12 39.38,-12 39.38,-6 45.38,0 51.38,0 51.38,0 194.88,0 194.88,0 200.88,0 206.88,-6 206.88,-12 206.88,-12 206.88,-30.5 206.88,-30.5 206.88,-36.5 200.88,-42.5 194.88,-42.5"/>
<text xml:space="preserve" text-anchor="middle" x="123.12" y="-25.2" font-family="Helvetica,sans-Serif" font-size="14.00">Clears local status,</text>
<text xml:space="preserve" text-anchor="middle" x="123.12" y="-7.95" font-family="Helvetica,sans-Serif" font-size="14.00">resumes attitude loop</text>
</g>
<!-- r2&#45;&gt;r3 -->
</g>
</svg>
