<?xml version="1.0" encoding="UTF-8" standalone="no"?>
<!DOCTYPE svg PUBLIC "-//W3C//DTD SVG 1.1//EN"
 "http://www.w3.org/Graphics/SVG/1.1/DTD/svg11.dtd">
<!-- Generated by graphviz version 14.1.2 (0)
 -->
<!-- Title: arch Pages: 1 -->
<svg width="586pt" height="141pt"
 viewBox="0.00 0.00 586.00 141.00" xmlns="http://www.w3.org/2000/svg" xmlns:xlink="http://www.w3.org/1999/xlink">
<g id="graph0" class="graph" transform="scale(1 1) rotate(0) translate(4 137)">
<title>arch</title>
<polygon fill="white" stroke="none" points="-4,4 -4,-137 581.75,-137 581.75,4 -4,4"/>
<g id="clust1" class="cluster">
<title>cluster_arm</title>
<polygon fill="#f4f8ff" stroke="#0052cc" points="8,-8 8,-125 217.75,-125 217.75,-8 8,-8"/>
<text xml:space="preserve" text-anchor="middle" x="112.88" y="-107.7" font-family="Helvetica,sans-Serif" font-weight="bold" font-size="14.00">ARM HOST DOMAIN</text>
</g>
<g id="clust2" class="cluster">
<title>cluster_riscv</title>
<polygon fill="#f0fff0" stroke="#008000" points="312.75,-8 312.75,-125 577.75,-125 577.75,-8 312.75,-8"/>
<text xml:space="preserve" text-anchor="middle" x="445.25" y="-107.7" font-family="Helvetica,sans-Serif" font-weight="bold" font-size="14.00">RISC&#45;V CO&#45;PROCESSOR DOMAIN</text>
</g>
<!-- linux -->
<g id="node1" class="node">
<title>linux</title>
<path fill="#cce0ff" stroke="#0052cc" d="M197.75,-91.88C197.75,-91.88 28,-91.88 28,-91.88 22,-91.88 16,-85.88 16,-79.88 16,-79.88 16,-28.12 16,-28.12 16,-22.12 22,-16.12 28,-16.12 28,-16.12 197.75,-16.12 197.75,-16.12 203.75,-16.12 209.75,-22.12 209.75,-28.12 209.75,-28.12 209.75,-79.88 209.75,-79.88 209.75,-85.88 203.75,-91.88 197.75,-91.88"/>
<text xml:space="preserve" text-anchor="middle" x="112.88" y="-74.58" font-family="Helvetica,sans-Serif" font-size="14.00">Linux Kernel / Apps</text>
<text xml:space="preserve" text-anchor="middle" x="112.88" y="-41.33" font-family="Helvetica,sans-Serif" font-size="14.00">(Writes to shared SRAM C</text>
<text xml:space="preserve" text-anchor="middle" x="112.88" y="-24.07" font-family="Helvetica,sans-Serif" font-size="14.00">and controls reset/clocks)</text>
</g>
<!-- fw -->
<g id="node2" class="node">
<title>fw</title>
<path fill="#ccffcc" stroke="#008000" d="M534.12,-91.88C534.12,-91.88 355.38,-91.88 355.38,-91.88 349.38,-91.88 343.38,-85.88 343.38,-79.88 343.38,-79.88 343.38,-28.12 343.38,-28.12 343.38,-22.12 349.38,-16.12 355.38,-16.12 355.38,-16.12 534.12,-16.12 534.12,-16.12 540.12,-16.12 546.12,-22.12 546.12,-28.12 546.12,-28.12 546.12,-79.88 546.12,-79.88 546.12,-85.88 540.12,-91.88 534.12,-91.88"/>
<text xml:space="preserve" text-anchor="middle" x="444.75" y="-74.58" font-family="Helvetica,sans-Serif" font-size="14.00">Bare&#45;Metal Firmware</text>
<text xml:space="preserve" text-anchor="middle" x="444.75" y="-41.33" font-family="Helvetica,sans-Serif" font-size="14.00">(Ingests FPGA SPI sensors,</text>
<text xml:space="preserve" text-anchor="middle" x="444.75" y="-24.07" font-family="Helvetica,sans-Serif" font-size="14.00">writes data to shared RB)</text>
</g>
<!-- linux&#45;&gt;fw -->
<g id="edge1" class="edge">
<title>linux&#45;&gt;fw</title>
<path fill="none" stroke="#666666" d="M221.59,-54C256.83,-54 296.06,-54 331.62,-54"/>
<polygon fill="#666666" stroke="#666666" points="221.69,-50.5 211.69,-54 221.69,-57.5 221.69,-50.5"/>
<polygon fill="#666666" stroke="#666666" points="331.51,-57.5 341.51,-54 331.51,-50.5 331.51,-57.5"/>
<text xml:space="preserve" text-anchor="middle" x="265.25" y="-57.25" font-family="Helvetica,sans-Serif" font-size="10.00">Shared SRAM C</text>
</g>
</g>
</svg>
