<?xml version="1.0" encoding="UTF-8" standalone="no"?>
<!DOCTYPE svg PUBLIC "-//W3C//DTD SVG 1.1//EN"
 "http://www.w3.org/Graphics/SVG/1.1/DTD/svg11.dtd">
<!-- Generated by graphviz version 14.1.2 (0)
 -->
<!-- Title: debug Pages: 1 -->
<svg width="471pt" height="141pt"
 viewBox="0.00 0.00 471.00 141.00" xmlns="http://www.w3.org/2000/svg" xmlns:xlink="http://www.w3.org/1999/xlink">
<g id="graph0" class="graph" transform="scale(1 1) rotate(0) translate(4 137)">
<title>debug</title>
<polygon fill="white" stroke="none" points="-4,4 -4,-137 467,-137 467,4 -4,4"/>
<g id="clust1" class="cluster">
<title>cluster_host</title>
<polygon fill="#f9f2fa" stroke="#702082" points="8,-8 8,-125 190.75,-125 190.75,-8 8,-8"/>
<text xml:space="preserve" text-anchor="middle" x="99.38" y="-107.7" font-family="Helvetica,sans-Serif" font-weight="bold" font-size="14.00">Ubuntu x86 Host PC</text>
</g>
<g id="clust2" class="cluster">
<title>cluster_board</title>
<polygon fill="#fff0f0" stroke="#d9534f" points="255.75,-8 255.75,-125 455,-125 455,-8 255.75,-8"/>
<text xml:space="preserve" text-anchor="middle" x="355.38" y="-107.7" font-family="Helvetica,sans-Serif" font-weight="bold" font-size="14.00">Radxa Cubie A5E Board</text>
</g>
<!-- gdb -->
<g id="node1" class="node">
<title>gdb</title>
<path fill="#e6ccff" stroke="#702082" d="M170.75,-91.88C170.75,-91.88 28,-91.88 28,-91.88 22,-91.88 16,-85.88 16,-79.88 16,-79.88 16,-28.12 16,-28.12 16,-22.12 22,-16.12 28,-16.12 28,-16.12 170.75,-16.12 170.75,-16.12 176.75,-16.12 182.75,-22.12 182.75,-28.12 182.75,-28.12 182.75,-79.88 182.75,-79.88 182.75,-85.88 176.75,-91.88 170.75,-91.88"/>
<text xml:space="preserve" text-anchor="middle" x="99.38" y="-74.58" font-family="Helvetica,sans-Serif" font-size="14.00">riscv&#45;none&#45;elf&#45;gdb</text>
<text xml:space="preserve" text-anchor="middle" x="99.38" y="-41.33" font-family="Helvetica,sans-Serif" font-size="14.00">(Reads firmware.elf</text>
<text xml:space="preserve" text-anchor="middle" x="99.38" y="-24.07" font-family="Helvetica,sans-Serif" font-size="14.00">source code symbols)</text>
</g>
<!-- openocd -->
<g id="node2" class="node">
<title>openocd</title>
<path fill="#ffcccc" stroke="#d9534f" d="M435,-91.88C435,-91.88 275.75,-91.88 275.75,-91.88 269.75,-91.88 263.75,-85.88 263.75,-79.88 263.75,-79.88 263.75,-28.12 263.75,-28.12 263.75,-22.12 269.75,-16.12 275.75,-16.12 275.75,-16.12 435,-16.12 435,-16.12 441,-16.12 447,-22.12 447,-28.12 447,-28.12 447,-79.88 447,-79.88 447,-85.88 441,-91.88 435,-91.88"/>
<text xml:space="preserve" text-anchor="middle" x="355.38" y="-74.58" font-family="Helvetica,sans-Serif" font-size="14.00">OpenOCD Server :3333</text>
<text xml:space="preserve" text-anchor="middle" x="355.38" y="-41.33" font-family="Helvetica,sans-Serif" font-size="14.00">(Reads/writes registers</text>
<text xml:space="preserve" text-anchor="middle" x="355.38" y="-24.07" font-family="Helvetica,sans-Serif" font-size="14.00">via MMIO over memory)</text>
</g>
<!-- gdb&#45;&gt;openocd -->
<g id="edge1" class="edge">
<title>gdb&#45;&gt;openocd</title>
<path fill="none" stroke="#666666" d="M194.46,-54C213.19,-54 232.94,-54 251.94,-54"/>
<polygon fill="#666666" stroke="#666666" points="194.71,-50.5 184.71,-54 194.71,-57.5 194.71,-50.5"/>
<polygon fill="#666666" stroke="#666666" points="251.82,-57.5 261.82,-54 251.82,-50.5 251.82,-57.5"/>
<text xml:space="preserve" text-anchor="middle" x="223.25" y="-57.25" font-family="Helvetica,sans-Serif" font-size="10.00">TCP 3333</text>
</g>
</g>
</svg>
